<svg version="1.1" id="Layer_1" xmlns="http://www.w3.org/2000/svg" x="0" y="0" viewBox="0 0 940 300" xml:space="preserve"><style>.st0{fill-rule:evenodd;clip-rule:evenodd;fill:#13bef9}</style><path class="st0" d="M84.3 76.6h-4v20.7h4V76.6zm17.2 0h-4v20.7h4V76.6zM125 37.1l-4.1-7.1-68.4 39.5 4.1 7.1L125 37.1z"/><path class="st0" d="M124.6 37.1l4.1-7.1 68.4 39.5-4.1 7.1-68.4-39.5z"/><path class="st0" d="M209.2 76.7v-8.2H21.8v8.2h187.4z"/><path class="st0" d="M135 192.5V71h8.2v127.4c-2.2-2.5-5-4.3-8.2-5.9zm-14-2.1V19h8.2v172.4c-2.3-1.1-7.9-1-8.2-1zm-77.7 17.1c-10-7.4-16.6-19.2-16.6-32.6 0-7.1 1.9-14.1 5.4-20.2h70c3.6 6.1 5.4 13.1 5.4 20.2 0 6.2-.8 12-3.3 17.2-5.3-5.1-13.1-7.3-21-7.3-14 0-26 8.7-29.1 21.7-1.1-.1-1.8-.2-2.9-.2-2.7.1-5.3.5-7.9 1.2z"/><path d="M219.8 115.5c-10.6 0-19.9 4.9-26.3 12.5v-11.4h-10.6v101.3h10.6v-42.7c6.3 7.8 15.7 12.8 26.3 12.8 19.8 0 36.1-16.9 36.1-36.4 0-19.8-16.3-36.1-36.1-36.1zm.3 62c-13.8 0-26-12.2-26-26 0-14.1 12.2-25.6 26-25.6 14.1 0 24.7 11.5 24.7 25.6 0 13.8-10.6 26-24.7 26zm82.2 10.4c19.8 0 36.1-16.9 36.1-36.4 0-19.8-16.3-36.1-36.1-36.1s-36.1 16.3-36.1 36.1c0 19.5 16.3 36.4 36.1 36.4zm0-62c14.1 0 25 11.5 25 25.6 0 13.8-10.9 26-25 26s-25-12.2-25-26c0-14 10.9-25.6 25-25.6zm63.3-9.3H355v69.6h10.6v-38.5c0-14.2 11.2-21.8 23.6-21.8v-10.4c-9.6 0-17.9 4.1-23.6 10.6v-9.5zm68.2 9.6v-9.6h-15.7V89.2h-10.6v27.4h-10.4v9.6h10.4v60h10.6v-60h15.7zm44.8 61.7c10.6 0 19.9-5.1 26.3-12.8v11.4h10.6v-69.9h-10.6V128c-6.3-7.6-15.7-12.5-26.3-12.5-19.8 0-36.1 16.3-36.1 36.1 0 19.4 16.3 36.3 36.1 36.3zm-.4-10.4c-14.1 0-24.7-12.2-24.7-26 0-14.1 10.6-25.6 24.7-25.6 13.8 0 26 11.5 26 25.6 0 13.8-12.2 26-26 26zm65.4-75c4 0 7.4-3.3 7.4-7.6 0-3.8-3.5-7.3-7.4-7.3-4.3 0-7.6 3.5-7.6 7.3 0 4.3 3.3 7.6 7.6 7.6zm-5.4 83.7h11.1v-69.6h-11.1v69.6zm33.4 0h10.6v-37c0-15.7 8.7-23.6 22.8-23.3 11.6 0 17.9 6.8 17.9 20.6v39.7h10.6v-39.7c0-22.2-8.5-31-28.5-31-9.5 0-17.2 3.5-22.8 9.5v-8.4h-10.6v69.6zm149.1-34.7c0-19.8-16.3-36.1-36.1-36.1s-36.1 16.3-36.1 36.1c0 19.5 16.3 36.4 36.1 36.4 14.1 0 26.6-8.1 32.4-20.1h-13.1c-4.4 5.7-11.2 9.7-19.3 9.7-12.3 0-22.3-9.5-24.5-21h60.6v-5zm-36.1-25.6c12.2 0 22.2 8.9 24.5 20.4H660c2.4-11.5 12.3-20.4 24.6-20.4zm63.3-9.3h-10.6v69.6h10.6v-38.5c0-14.2 11.2-21.8 23.6-21.8v-10.4c-9.7 0-17.9 4.1-23.6 10.6v-9.5zm39.6 70.4c4.7 0 8.7-4 8.7-8.9 0-4.7-4-8.7-8.7-8.7-4.9 0-8.9 4-8.9 8.7 0 4.9 4 8.9 8.9 8.9zm36-84.5c4 0 7.4-3.3 7.4-7.6 0-3.8-3.5-7.3-7.4-7.3-4.3 0-7.6 3.5-7.6 7.3.1 4.3 3.4 7.6 7.6 7.6zm-5.3 83.7h11.1v-69.6h-11.1v69.6zm63.9 1.7c19.8 0 36.1-16.9 36.1-36.4 0-19.8-16.3-36.1-36.1-36.1S846 131.7 846 151.5c0 19.5 16.3 36.4 36.1 36.4zm0-62c14.1 0 25 11.5 25 25.6 0 13.8-10.9 26-25 26s-25-12.2-25-26c0-14 10.9-25.6 25-25.6z" fill="#13bef9"/><path class="st0" d="M77.7 106.5H56.5v21.3h21.2v-21.3zm-23.9 0H32.6v21.3h21.2v-21.3zm0 23.7H32.6v21.3h21.2v-21.3zm23.9 0H56.5v21.3h21.2v-21.3zm23.8 0H80.3v21.3h21.2v-21.3zm0-35.1H80.3v21.3h21.2V95.1zM57.6 210.7c2.9-12.3 14-21.5 27.2-21.5 8.5 0 16.1 3.8 21.3 9.8 4.5-3.1 9.9-4.9 15.8-4.9 15.4 0 27.9 12.5 27.9 27.9 0 3.2-.5 6.2-1.5 9.1 3.4 4.6 5.5 10.4 5.5 16.6 0 15.4-12.5 27.9-27.9 27.9-6.8 0-13-2.4-17.8-6.4-5.1 7.1-13.4 11.8-22.8 11.8-10.8 0-20.2-6.2-24.9-15.2-1.9.4-3.8.6-5.8.6-15.4 0-28-12.5-28-27.9s12.5-27.9 28-27.9c1-.1 2-.1 3 .1z"/></svg>